<mxfile host="Electron" agent="Mozilla/5.0 (Windows NT 10.0; Win64; x64) AppleWebKit/537.36 (KHTML, like Gecko) draw.io/27.0.9 Chrome/134.0.6998.205 Electron/35.4.0 Safari/537.36" version="27.0.9">
  <diagram name="Страница — 1" id="6u706be79y7MybmGX33A">
    <mxGraphModel dx="1358" dy="801" grid="1" gridSize="10" guides="1" tooltips="1" connect="1" arrows="1" fold="1" page="1" pageScale="1" pageWidth="827" pageHeight="1169" math="0" shadow="0">
      <root>
        <mxCell id="0" />
        <mxCell id="1" parent="0" />
        <mxCell id="mM9u9tFQNmqHJ-WvdIi9-3" value="Фонд" style="whiteSpace=wrap;html=1;align=center;" parent="1" vertex="1">
          <mxGeometry x="360" y="80" width="100" height="40" as="geometry" />
        </mxCell>
        <mxCell id="rF4SNhV4sSFLf15WKO5i-3" value="Вид фонда" style="whiteSpace=wrap;html=1;align=center;" vertex="1" parent="1">
          <mxGeometry x="540" y="140" width="100" height="40" as="geometry" />
        </mxCell>
        <mxCell id="rF4SNhV4sSFLf15WKO5i-4" value="Инвестор" style="whiteSpace=wrap;html=1;align=center;" vertex="1" parent="1">
          <mxGeometry x="180" y="140" width="100" height="40" as="geometry" />
        </mxCell>
        <mxCell id="rF4SNhV4sSFLf15WKO5i-5" value="Ценная бумага" style="whiteSpace=wrap;html=1;align=center;" vertex="1" parent="1">
          <mxGeometry x="120" y="280" width="100" height="40" as="geometry" />
        </mxCell>
        <mxCell id="rF4SNhV4sSFLf15WKO5i-6" value="Эмитент" style="whiteSpace=wrap;html=1;align=center;" vertex="1" parent="1">
          <mxGeometry x="260" y="440" width="100" height="40" as="geometry" />
        </mxCell>
        <mxCell id="rF4SNhV4sSFLf15WKO5i-7" value="Позиция инвестора" style="whiteSpace=wrap;html=1;align=center;" vertex="1" parent="1">
          <mxGeometry x="460" y="440" width="100" height="40" as="geometry" />
        </mxCell>
        <mxCell id="rF4SNhV4sSFLf15WKO5i-8" value="Стоимость чистых активов" style="whiteSpace=wrap;html=1;align=center;" vertex="1" parent="1">
          <mxGeometry x="600" y="280" width="100" height="40" as="geometry" />
        </mxCell>
        <mxCell id="rF4SNhV4sSFLf15WKO5i-9" value="" style="edgeStyle=entityRelationEdgeStyle;fontSize=12;html=1;endArrow=ERmany;rounded=0;exitX=0;exitY=0.5;exitDx=0;exitDy=0;entryX=1;entryY=0.25;entryDx=0;entryDy=0;" edge="1" parent="1" source="rF4SNhV4sSFLf15WKO5i-3" target="mM9u9tFQNmqHJ-WvdIi9-3">
          <mxGeometry width="100" height="100" relative="1" as="geometry">
            <mxPoint x="150" y="160" as="sourcePoint" />
            <mxPoint x="250" y="60" as="targetPoint" />
          </mxGeometry>
        </mxCell>
        <mxCell id="rF4SNhV4sSFLf15WKO5i-10" value="" style="edgeStyle=entityRelationEdgeStyle;fontSize=12;html=1;endArrow=ERmany;rounded=0;exitX=1;exitY=0.5;exitDx=0;exitDy=0;entryX=0;entryY=0.75;entryDx=0;entryDy=0;" edge="1" parent="1" source="rF4SNhV4sSFLf15WKO5i-4" target="rF4SNhV4sSFLf15WKO5i-7">
          <mxGeometry width="100" height="100" relative="1" as="geometry">
            <mxPoint x="350" y="300" as="sourcePoint" />
            <mxPoint x="430" y="390" as="targetPoint" />
          </mxGeometry>
        </mxCell>
        <mxCell id="rF4SNhV4sSFLf15WKO5i-11" value="" style="edgeStyle=entityRelationEdgeStyle;fontSize=12;html=1;endArrow=ERmany;rounded=0;exitX=1;exitY=0.75;exitDx=0;exitDy=0;" edge="1" parent="1" source="mM9u9tFQNmqHJ-WvdIi9-3">
          <mxGeometry width="100" height="100" relative="1" as="geometry">
            <mxPoint x="290" y="170" as="sourcePoint" />
            <mxPoint x="460" y="450" as="targetPoint" />
          </mxGeometry>
        </mxCell>
      </root>
    </mxGraphModel>
  </diagram>
</mxfile>
